<?xml version="1.0" encoding="utf-8"?>
<!-- Generator: Adobe Illustrator 22.1.0, SVG Export Plug-In . SVG Version: 6.00 Build 0)  -->
<svg version="1.1" xmlns="http://www.w3.org/2000/svg" xmlns:xlink="http://www.w3.org/1999/xlink" x="0px" y="0px"
	 viewBox="0 0 48 48" enable-background="new 0 0 48 48" xml:space="preserve">
<g id="PROPORTIONS" display="none">
	<g id="Core_Grid_13_" display="inline">
	</g>
	<g id="Core_Grid_12_" display="inline">
	</g>
	<g id="Core_Shape_3_" display="inline">
	</g>
	<g id="Icon_7_" display="inline">
	</g>
	<g id="Core_Grid_11_" display="inline">
	</g>
	<g id="Core_Shape_2_" display="inline">
	</g>
	<g id="Core_Grid_10_" display="inline">
	</g>
	<g id="Icon_6_" display="inline">
	</g>
	<g id="Core_Grid_3_" display="inline">
	</g>
	<g id="Core_Shape_1_" display="inline">
	</g>
	<g id="Icon_5_" display="inline">
	</g>
	<g id="Core_Grid_2_" display="inline">
	</g>
	<g id="Core_Grid_1_" display="inline">
	</g>
	<g id="Core_Shape" display="inline">
	</g>
	<g id="Icon_4_" display="inline">
	</g>
	<g id="Core_Grid" display="inline">
	</g>
	<g id="Core_Grid_4_" display="inline">
	</g>
	<g id="Core_Shape_7_" display="inline">
	</g>
	<g id="Icon_3_" display="inline">
	</g>
	<g id="Core_Grid_copy_2" display="inline">
	</g>
	<g id="Core_Grid_copy" display="inline">
	</g>
	<g id="Core_Shape_4_" display="inline">
	</g>
	<g id="Icon_2_" display="inline">
	</g>
	<g id="Core_Grid_5_" display="inline">
	</g>
	<g id="Core_Grid_6_" display="inline">
	</g>
	<g id="Core_Shape_5_" display="inline">
	</g>
	<g id="Icon_1_" display="inline">
	</g>
	<g id="Core_Grid_9_" display="inline">
		<line fill="none" stroke="#555555" stroke-width="0.1" stroke-miterlimit="10" x1="0.3" y1="0.3" x2="48.3" y2="48.3"/>
		<line fill="none" stroke="#555555" stroke-width="0.1" stroke-miterlimit="10" x1="0.3" y1="48.3" x2="48.3" y2="0.3"/>
	</g>
	<g id="Core_Grid_7_" display="inline">
	</g>
	<g id="Core_Shape_6_" display="inline">
	</g>
	<g id="Icon" display="inline">
	</g>
	<g id="Core_Grid_8_" display="inline">
	</g>
</g>
<g id="Layer_35">
</g>
<g id="ICONS">
	<g>
		<g id="horizontal_rectangle_4_">
			<path fill="#104C97" d="M44.7,8.7c0.5,0,1,0.5,1,1v29.5c0,0.5-0.5,1-1,1H3.3c-0.5,0-1-0.5-1-1V9.7c0-0.5,0.5-1,1-1H44.7
				 M44.7,6.7H3.3c-1.6,0-3,1.4-3,3v29.5c0,1.6,1.4,3,3,3h41.3c1.7,0,3-1.4,3-3V9.7C47.7,8.1,46.3,6.7,44.7,6.7L44.7,6.7z"/>
		</g>
		
			<line fill="none" stroke="#104C97" stroke-width="2" stroke-linecap="round" stroke-linejoin="round" stroke-miterlimit="10" x1="39.4" y1="16.3" x2="29.8" y2="16.3"/>
		
			<line fill="none" stroke="#104C97" stroke-width="2" stroke-linecap="round" stroke-linejoin="round" stroke-miterlimit="10" x1="39.4" y1="20.6" x2="29.8" y2="20.6"/>
		<g>
			<g>
				<path fill="#C8C9C7" d="M17.7,25v9.5H7.9C7.9,34.4,8.4,25,17.7,25z"/>
				
					<path fill="none" stroke="#104C97" stroke-width="2" stroke-linecap="round" stroke-linejoin="round" stroke-miterlimit="10" d="
					M17.7,25c-9,0-9.8,9.5-9.8,9.5h19.6C27.5,34.4,26.6,25,17.7,25z"/>
			</g>
			<g>
				<path fill="#C8C9C7" d="M17.7,24.7v-9.3c0,0-4.7,0.2-4.7,4.6S17.7,24.7,17.7,24.7z"/>
				<g>
					<g>
						<path fill="#104C97" d="M17.7,16.5c1.9,0,3.5,1.6,3.5,3.5s-1.6,3.5-3.5,3.5S14.2,22,14.2,20S15.8,16.5,17.7,16.5 M17.7,14.5
							c-3.1,0-5.5,2.5-5.5,5.5s2.5,5.5,5.5,5.5s5.5-2.5,5.5-5.5S20.8,14.5,17.7,14.5L17.7,14.5z"/>
					</g>
				</g>
			</g>
		</g>
	</g>
</g>
</svg>
