<svg xmlns="http://www.w3.org/2000/svg" viewBox="0 0 48 48"><defs><style>.cls-1{fill:#c8c9c7;}.cls-2{fill:#104c97;}</style></defs><title>1_</title><g id="ICONS"><path class="cls-1" d="M5.86,10.33S22,15.33,24,12.67V34.33s-18-2.19-18-5S5.86,10.33,5.86,10.33Z"/><path class="cls-2" d="M6,23.77s9.21,4.56,16.58,3.56"/><path class="cls-2" d="M20.33,28c-6.87,0-14.21-3.59-14.55-3.76l.44-.9c.09.05,9.17,4.49,16.29,3.52l.14,1A17.84,17.84,0,0,1,20.33,28Z"/><path class="cls-2" d="M41,8.33c-3.14,0-6.27.92-9.58,1.89a59.9,59.9,0,0,1-9,2.12c-7,.95-15.91-3.42-16-3.47A1,1,0,0,0,5,9.77v21a1,1,0,0,0,.56.9c.34.17,7.78,3.81,14.78,3.81a16.85,16.85,0,0,0,2.37-.16A61.35,61.35,0,0,0,32,33.14a34.27,34.27,0,0,1,8.61-1.8A1.42,1.42,0,0,0,42,29.93V9.33A1,1,0,0,0,41,8.33ZM19.5,21.45c.28,0,.56,0,.84,0a16.85,16.85,0,0,0,2.37-.16A61.35,61.35,0,0,0,32,19.14a37.29,37.29,0,0,1,8-1.77v5a38.62,38.62,0,0,0-8.55,1.85,59.9,59.9,0,0,1-9,2.12,15.91,15.91,0,0,1-2.94.11Zm3.21-7.13A61.35,61.35,0,0,0,32,12.14a37.29,37.29,0,0,1,8-1.77v5a38.62,38.62,0,0,0-8.55,1.85,59.9,59.9,0,0,1-9,2.12,16.83,16.83,0,0,1-2.94.11v-5A18,18,0,0,0,22.71,14.32Zm8.74,16.9a59.9,59.9,0,0,1-9,2.12c-6,.81-13.37-2.27-15.44-3.21V25.32c2.55,1.1,8.07,3.16,13.34,3.16a16.85,16.85,0,0,0,2.37-.16A61.35,61.35,0,0,0,32,26.14a37.29,37.29,0,0,1,8-1.77V29.3a.07.07,0,0,1-.07.07A39.8,39.8,0,0,0,31.45,31.22Z"/></g></svg>