<svg xmlns="http://www.w3.org/2000/svg" viewBox="0 0 48 48"><defs><style>.cls-1{fill:#104c97;}.cls-2{fill:#c8c9c7;}</style></defs><title>1_</title><g id="ICONS"><path class="cls-1" d="M45,29.33H37v2h5v9H37v2h6a1,1,0,0,0,1-1v-10h1a1,1,0,0,0,0-2Z"/><path class="cls-2" d="M20,19.33v22H6v-14S19.69,19,20,19.33Z"/><path class="cls-1" d="M17.9,37.26H10.38a1,1,0,0,1-1-1V30.33a1,1,0,0,1,1-1H17.9a1,1,0,0,1,1,1v5.93A1,1,0,0,1,17.9,37.26Zm-6.52-2H16.9V31.33H11.38Z"/><path class="cls-1" d="M36.44,26.44l-16.31-8a1,1,0,0,0-.9,0L16,20.15V17.33a1,1,0,0,0-1-1H10.23a1,1,0,0,0-1,1v6.38l-6.08,3.2a1,1,0,0,0,.47,1.88,1,1,0,0,0,.46-.11l1.07-.56V41.33a1,1,0,0,0,1,1H34a1,1,0,0,0,1-1V28l.58.28a1,1,0,1,0,.88-1.79ZM11.23,18.33H14V21.2l-2.77,1.46Zm12,22v-9h5.52v9Zm9.75,0H30.75v-10a1,1,0,0,0-1-1H22.23a1,1,0,0,0-1,1v10H7.15V27.06l3.42-1.79.16-.09,9-4.73L33,27Z"/><path class="cls-1" d="M14.5,15.33a3.5,3.5,0,0,1-.4-7,5,5,0,1,1,4.9,6A5.08,5.08,0,0,1,17.23,14,3.49,3.49,0,0,1,14.5,15.33Zm0-5a1.5,1.5,0,1,0,1.4,2,1,1,0,0,1,.62-.61,1,1,0,0,1,.86.11,3,3,0,0,0,1.62.48,3,3,0,1,0-3-3v.09a1,1,0,0,1-.36.78,1,1,0,0,1-.84.2Z"/></g></svg>