<svg id="ICONS" xmlns="http://www.w3.org/2000/svg" viewBox="0 0 48 48"><defs><style>.cls-1{fill:#104c97;}.cls-2{fill:none;}.cls-3{fill:#c8c9c7;}</style></defs><title>1_</title><path class="cls-1" d="M37.44,16a2.52,2.52,0,0,0-2.1-2.32V11.79a1,1,0,0,1,.53.76v.16s0,.07,0,.1a.53.53,0,0,0,0,.12V13h0a.76.76,0,0,0,1.47,0h0V12.9a.29.29,0,0,0,0-.09.3.3,0,0,0,0-.1v-.18a2.52,2.52,0,0,0-2-2.27V9.1a.75.75,0,0,0-1.5,0v1.15a2.5,2.5,0,0,0-2.1,2.32,2.51,2.51,0,0,0,2.1,2.32v1.86A.94.94,0,0,1,33.3,16v-.16s0-.05,0-.08a.45.45,0,0,0,0-.11v-.11h0a.77.77,0,0,0-.73-.56.76.76,0,0,0-.73.56h0v.14s0,.05,0,.08,0,.05,0,.08V16a2.52,2.52,0,0,0,2.06,2.27v.82a.75.75,0,0,0,1.5,0v-.8A2.53,2.53,0,0,0,37.44,16Zm-3.6-2.6a1,1,0,0,1-.59-.8,1,1,0,0,1,.59-.8ZM35.92,16a1,1,0,0,1-.58.8v-1.6A1,1,0,0,1,35.92,16Z"/><circle class="cls-1" cx="25.75" cy="31" r="1.19"/><polygon class="cls-2" points="19.74 23 39.74 23 39.74 5 14.86 5 14.86 7 19.74 7 19.74 23"/><path class="cls-1" d="M14.86,5H39.74V23h2V4a1,1,0,0,0-1-1H13.86a1,1,0,0,0-1,1V7h2Z"/><path class="cls-1" d="M8.09,32.5a1.17,1.17,0,0,0,1,1.15v-2.3A1.17,1.17,0,0,0,8.09,32.5Z"/><path class="cls-1" d="M1.69,36V10H16.81V23h1V10a1,1,0,0,0-1-1H1.69a1,1,0,0,0-1,1V36a1,1,0,0,0,1,1h7.4V36Z"/><polygon class="cls-1" points="16.81 23 16.81 10 1.69 10 1.69 36 9.09 36 9.09 35 2.69 35 2.69 11 15.81 11 15.81 23 16.81 23"/><path class="cls-1" d="M5.69,28V15h6.88v8h2V14a1,1,0,0,0-1-1H4.69a1,1,0,0,0-1,1V29a1,1,0,0,0,1,1h4.4V28Z"/><path class="cls-1" d="M45.83,43h-34a1,1,0,0,1-1-1V26a1,1,0,0,1,1-1h34a1,1,0,0,1,1,1V42A1,1,0,0,1,45.83,43Zm-33-2h32V27h-32Z"/><rect class="cls-3" x="12.83" y="27" width="16.46" height="14"/><path class="cls-1" d="M29.33,38a1,1,0,0,1-.51-.15l-16.5-10a1,1,0,0,1,1-1.72l16,9.64,15-9.62a1,1,0,1,1,1.08,1.68l-15.5,10A1,1,0,0,1,29.33,38Z"/><path class="cls-1" d="M27.74,13a1,1,0,0,0,0-2h-8v2Z"/><path class="cls-1" d="M27.74,16.68h-8v2h8a1,1,0,1,0,0-2Z"/></svg>