<?xml version="1.0" encoding="utf-8"?>
<!-- Generator: Adobe Illustrator 22.1.0, SVG Export Plug-In . SVG Version: 6.00 Build 0)  -->
<svg version="1.1" xmlns="http://www.w3.org/2000/svg" xmlns:xlink="http://www.w3.org/1999/xlink" x="0px" y="0px"
	 viewBox="0 0 48 48" enable-background="new 0 0 48 48" xml:space="preserve">
<g id="PROPORTIONS" display="none">
	<g id="Core_Grid_13_" display="inline">
	</g>
	<g id="Core_Grid_12_" display="inline">
	</g>
	<g id="Core_Shape_3_" display="inline">
	</g>
	<g id="Icon_7_" display="inline">
	</g>
	<g id="Core_Grid_11_" display="inline">
	</g>
	<g id="Core_Shape_2_" display="inline">
	</g>
	<g id="Core_Grid_10_" display="inline">
	</g>
	<g id="Icon_6_" display="inline">
	</g>
	<g id="Core_Grid_3_" display="inline">
	</g>
	<g id="Core_Shape_1_" display="inline">
	</g>
	<g id="Icon_5_" display="inline">
	</g>
	<g id="Core_Grid_2_" display="inline">
	</g>
	<g id="Core_Grid_1_" display="inline">
	</g>
	<g id="Core_Shape" display="inline">
	</g>
	<g id="Icon_4_" display="inline">
	</g>
	<g id="Core_Grid" display="inline">
	</g>
	<g id="Core_Grid_4_" display="inline">
	</g>
	<g id="Core_Shape_7_" display="inline">
	</g>
	<g id="Icon_3_" display="inline">
	</g>
	<g id="Core_Grid_copy_2" display="inline">
	</g>
	<g id="Core_Grid_copy" display="inline">
	</g>
	<g id="Core_Shape_4_" display="inline">
	</g>
	<g id="Icon_2_" display="inline">
	</g>
	<g id="Core_Grid_5_" display="inline">
	</g>
	<g id="Core_Grid_6_" display="inline">
	</g>
	<g id="Core_Shape_5_" display="inline">
	</g>
	<g id="Icon_1_" display="inline">
	</g>
	<g id="Core_Grid_9_" display="inline">
	</g>
	<g id="Core_Grid_7_" display="inline">
	</g>
	<g id="Core_Shape_6_" display="inline">
	</g>
	<g id="Icon" display="inline">
	</g>
	<g id="Core_Grid_8_" display="inline">
		<g>
			<path fill="#555555" d="M42,3.1c1.6,0,2.9,1.3,2.9,2.9v36c0,1.6-1.3,2.9-2.9,2.9H6c-1.6,0-2.9-1.3-2.9-2.9V6
				c0-1.6,1.3-2.9,2.9-2.9H42 M42,3H6C4.4,3,3,4.3,3,6v36c0,1.7,1.3,3,3,3h36c1.7,0,3-1.3,3-3V6C45,4.3,43.7,3,42,3L42,3z"/>
		</g>
		<g>
			<path fill="#555555" d="M6,3.1c1.6,0,2.9,1.3,2.9,2.9S7.6,8.9,6,8.9S3.1,7.6,3.1,6S4.4,3.1,6,3.1 M6,3C4.3,3,3,4.3,3,6s1.3,3,3,3
				s3-1.3,3-3S7.7,3,6,3L6,3z"/>
		</g>
		<g>
			<path fill="#555555" d="M42,3.1c1.6,0,2.9,1.3,2.9,2.9S43.6,8.9,42,8.9S39.1,7.6,39.1,6S40.4,3.1,42,3.1 M42,3c-1.7,0-3,1.3-3,3
				s1.3,3,3,3s3-1.3,3-3S43.7,3,42,3L42,3z"/>
		</g>
		<g>
			<path fill="#555555" d="M6,39.1c1.6,0,2.9,1.3,2.9,2.9S7.6,44.9,6,44.9S3.1,43.6,3.1,42S4.4,39.1,6,39.1 M6,39c-1.7,0-3,1.3-3,3
				s1.3,3,3,3s3-1.3,3-3S7.7,39,6,39L6,39z"/>
		</g>
		<g>
			<path fill="#555555" d="M42,39.1c1.6,0,2.9,1.3,2.9,2.9s-1.3,2.9-2.9,2.9s-2.9-1.3-2.9-2.9S40.4,39.1,42,39.1 M42,39
				c-1.7,0-3,1.3-3,3s1.3,3,3,3s3-1.3,3-3S43.7,39,42,39L42,39z"/>
		</g>
		<line fill="none" stroke="#555555" stroke-width="0.1" stroke-miterlimit="10" x1="0" y1="0" x2="48" y2="48"/>
		<line fill="none" stroke="#555555" stroke-width="0.1" stroke-miterlimit="10" x1="0" y1="48" x2="48" y2="0"/>
	</g>
</g>
<g id="Layer_35">
</g>
<g id="ICONS">
	<path fill="#C8C9C7" d="M24,24v20H5C5,44,6,24,24,24z"/>
	<path fill="none" stroke="#104C97" stroke-width="2" stroke-linecap="round" stroke-linejoin="round" stroke-miterlimit="10" d="
		M23.9,24C6.6,24,5,44,5,44h38C43,44,41.3,24,23.9,24z"/>
	<path fill="#C8C9C7" d="M24,20V4c0,0-8,0.4-8,8S24,20,24,20z"/>
	<g>
		<g>
			<path fill="#104C97" d="M24,5c3.9,0,7,3.1,7,7s-3.1,7-7,7s-7-3.1-7-7S20.1,5,24,5 M24,3c-5,0-9,4-9,9s4,9,9,9s9-4,9-9S29,3,24,3
				L24,3z"/>
		</g>
	</g>
</g>
</svg>
