<?xml version="1.0" encoding="utf-8"?>
<!-- Generator: Adobe Illustrator 22.1.0, SVG Export Plug-In . SVG Version: 6.00 Build 0)  -->
<svg version="1.1" xmlns="http://www.w3.org/2000/svg" xmlns:xlink="http://www.w3.org/1999/xlink" x="0px" y="0px"
	 viewBox="0 0 48 48" enable-background="new 0 0 48 48" xml:space="preserve">
<g id="PROPORTIONS" display="none">
	<g id="Core_Grid_13_" display="inline">
	</g>
	<g id="Core_Grid_12_" display="inline">
	</g>
	<g id="Core_Shape_3_" display="inline">
	</g>
	<g id="Icon_7_" display="inline">
	</g>
	<g id="Core_Grid_11_" display="inline">
	</g>
	<g id="Core_Shape_2_" display="inline">
	</g>
	<g id="Core_Grid_10_" display="inline">
	</g>
	<g id="Icon_6_" display="inline">
	</g>
	<g id="Core_Grid_3_" display="inline">
	</g>
	<g id="Core_Shape_1_" display="inline">
	</g>
	<g id="Icon_5_" display="inline">
	</g>
	<g id="Core_Grid_2_" display="inline">
	</g>
	<g id="Core_Grid_1_" display="inline">
	</g>
	<g id="Core_Shape" display="inline">
	</g>
	<g id="Icon_4_" display="inline">
	</g>
	<g id="Core_Grid" display="inline">
	</g>
	<g id="Core_Grid_4_" display="inline">
	</g>
	<g id="Core_Shape_7_" display="inline">
	</g>
	<g id="Icon_3_" display="inline">
	</g>
	<g id="Core_Grid_copy_2" display="inline">
	</g>
	<g id="Core_Grid_copy" display="inline">
	</g>
	<g id="Core_Shape_4_" display="inline">
	</g>
	<g id="Icon_2_" display="inline">
	</g>
	<g id="Core_Grid_5_" display="inline">
	</g>
	<g id="Core_Grid_6_" display="inline">
	</g>
	<g id="Core_Shape_5_" display="inline">
	</g>
	<g id="Icon_1_" display="inline">
	</g>
	<g id="Core_Grid_9_" display="inline">
		<g>
			<g>
				<path fill="#555555" d="M24,18.1c3.3,0,5.9,2.6,5.9,5.9s-2.6,5.9-5.9,5.9s-5.9-2.6-5.9-5.9S20.7,18.1,24,18.1 M24,18
					c-3.3,0-6,2.7-6,6s2.7,6,6,6s6-2.7,6-6S27.3,18,24,18L24,18z"/>
			</g>
		</g>
		<g>
			<g>
				<path fill="#555555" d="M24,15.1c4.9,0,8.9,4,8.9,8.9s-4,8.9-8.9,8.9s-8.9-4-8.9-8.9S19.1,15.1,24,15.1 M24,15c-5,0-9,4-9,9
					s4,9,9,9c5,0,9-4,9-9S29,15,24,15L24,15z"/>
			</g>
		</g>
		<g>
			<g>
				<path fill="#555555" d="M24,12.1c6.6,0,11.9,5.3,11.9,11.9S30.6,35.9,24,35.9S12.1,30.6,12.1,24S17.4,12.1,24,12.1 M24,12
					c-6.6,0-12,5.4-12,12s5.4,12,12,12c6.6,0,12-5.4,12-12S30.6,12,24,12L24,12z"/>
			</g>
		</g>
		<g>
			<g>
				<path fill="#555555" d="M24,0.1c13.2,0,23.9,10.7,23.9,23.9S37.2,47.9,24,47.9S0.1,37.2,0.1,24S10.8,0.1,24,0.1 M24,0
					C10.7,0,0,10.7,0,24s10.7,24,24,24s24-10.7,24-24S37.3,0,24,0L24,0z"/>
			</g>
		</g>
		<line fill="none" stroke="#555555" stroke-width="0.1" stroke-miterlimit="10" x1="0" y1="0" x2="48" y2="48"/>
		<line fill="none" stroke="#555555" stroke-width="0.1" stroke-miterlimit="10" x1="0" y1="48" x2="48" y2="0"/>
	</g>
	<g id="Core_Grid_7_" display="inline">
	</g>
	<g id="Core_Shape_6_" display="inline">
	</g>
	<g id="Icon" display="inline">
	</g>
	<g id="Core_Grid_8_" display="inline">
	</g>
</g>
<g id="Layer_35">
</g>
<g id="ICONS">
	<path fill="#C8C9C7" d="M23.9,1c-7.4,0-13.4,6.5-13.4,14.5c0,2.1,0.4,4,1.1,5.8l12.2,26l0.2-0.5L23.9,1C24,1,24,1,23.9,1z"/>
	<path fill="none" stroke="#104C97" stroke-width="2" stroke-linecap="round" stroke-linejoin="round" stroke-miterlimit="10" d="
		M37.9,15.5C37.9,7.5,31.7,1,24,1S10.1,7.5,10.1,15.5c0,2.1,0.4,4,1.2,5.8l12.6,26l12.9-26C37.5,19.5,37.9,17.6,37.9,15.5z"/>
	<g>
		<path fill="#104C97" d="M24,12.7c2.1,0,3.8,1.7,3.8,3.8s-1.7,3.8-3.8,3.8s-3.8-1.7-3.8-3.8S21.9,12.7,24,12.7 M24,10.7
			c-3.2,0-5.8,2.6-5.8,5.8s2.6,5.8,5.8,5.8s5.8-2.6,5.8-5.8S27.2,10.7,24,10.7L24,10.7z"/>
	</g>
</g>
</svg>
