<?xml version="1.0" encoding="utf-8"?>
<!-- Generator: Adobe Illustrator 21.0.2, SVG Export Plug-In . SVG Version: 6.00 Build 0)  -->
<svg version="1.1" id="Layer_1" xmlns="http://www.w3.org/2000/svg" xmlns:xlink="http://www.w3.org/1999/xlink" x="0px" y="0px"
	 width="235px" height="15px" viewBox="0 0 235 15" style="enable-background:new 0 0 235 15;" xml:space="preserve">
<style type="text/css">
	.st0{fill:none;}
	.st1{fill:#006FCF;}
</style>
<rect class="st0" width="235" height="15"/>
<g>
	<path class="st1" d="M230.1,5.8h-3.6c-0.8,0-1.3-0.5-1.3-1.2c0-0.7,0.6-1.1,1.3-1.1h6.5l1.5-3.3h-8c-3.3,0-5.2,2-5.2,4.6
		c0,2.8,1.8,4.4,4.7,4.4h3.6c0.8,0,1.3,0.5,1.3,1.2c0,0.7-0.5,1.2-1.3,1.2h-7.8v3.3h7.8c3.3,0,5.2-1.9,5.2-4.7
		C234.8,7.4,233.1,5.8,230.1,5.8 M215.8,5.8h-3.6c-0.8,0-1.3-0.5-1.3-1.2c0-0.7,0.6-1.1,1.3-1.1h6.5l1.5-3.3h-8
		c-3.3,0-5.2,2-5.2,4.6c0,2.8,1.8,4.4,4.7,4.4h3.6c0.8,0,1.3,0.5,1.3,1.2c0,0.7-0.5,1.2-1.3,1.2h-7.8v3.3h7.8c3.3,0,5.2-1.9,5.2-4.7
		C220.5,7.4,218.8,5.8,215.8,5.8"/>
	<polygon class="st1" points="193,14.8 205.3,14.8 205.3,11.5 196.9,11.5 196.9,9.1 205.1,9.1 205.1,5.8 196.9,5.8 196.9,3.5
		205.3,3.5 205.3,0.2 193,0.2 	"/>
	<path class="st1" d="M185.3,6.4h-4.1V3.5h4.1c1.2,0,1.8,0.7,1.8,1.5C187,5.8,186.4,6.4,185.3,6.4 M191,4.9c0-2.8-2-4.7-5.2-4.7
		h-8.4v14.6h3.9V9.7h1.4l4.4,5.1h4.8l-4.8-5.3C189.5,9,191,7.2,191,4.9 M170,6.7h-4.2V3.5h4.2c1.2,0,1.8,0.7,1.8,1.6
		C171.7,6,171.1,6.7,170,6.7 M170.4,0.2h-8.5v14.6h3.9V10h4.5c3.3,0,5.3-2.1,5.3-4.9C175.6,2.2,173.6,0.2,170.4,0.2"/>
	<polygon class="st1" points="161.2,0.2 156.2,0.2 152.4,4.6 148.6,0.2 143.5,0.2 149.9,7.4 143.4,14.8 148.4,14.8 152.3,10.2
		156.3,14.8 161.4,14.8 154.8,7.3 	"/>
	<polygon class="st1" points="130.5,14.8 142.8,14.8 142.8,11.5 134.4,11.5 134.4,9.1 142.6,9.1 142.6,5.8 134.4,5.8 134.4,3.5
		142.8,3.5 142.8,0.2 130.5,0.2 	"/>
	<polygon class="st1" points="116.8,9.1 110.8,0.2 105.9,0.2 105.9,14.8 109.8,14.8 109.8,5.5 115.9,14.8 120.6,14.8 120.6,0.2
		116.8,0.2 	"/>
	<path class="st1" d="M94.1,8.6l2-4.9l2,4.9H94.1z M93.7,0.2l-6.4,14.6h4.3l1.2-3h6.8l1.3,3h4.4L98.7,0.2H93.7z M80.9,7.6V7.3
		c0-2.2,1.2-3.7,3.7-3.7H89V0.2h-4.7c-4.8,0-7.3,3.1-7.3,7.1v0.3c0,4.5,2.8,7.1,7.1,7.1h1.3l1.6-3.3h-2.3
		C82.4,11.5,80.9,10.2,80.9,7.6"/>
	<polygon class="st1" points="71.1,0.2 71.1,7.5 71.1,14.8 73,14.8 75,14.8 75,7.5 75,0.2 	"/>
	<path class="st1" d="M63.3,6.4h-4.1V3.5h4.1c1.2,0,1.8,0.7,1.8,1.5C65.1,5.8,64.5,6.4,63.3,6.4 M69,4.9c0-2.8-2-4.7-5.2-4.7h-8.4
		v14.6h3.9V9.7h1.4l4.4,5.1H70l-4.8-5.3C67.6,9,69,7.2,69,4.9"/>
	<polygon class="st1" points="40.5,14.8 52.8,14.8 52.8,11.5 44.4,11.5 44.4,9.1 52.6,9.1 52.6,5.8 44.4,5.8 44.4,3.5 52.8,3.5
		52.8,0.2 40.5,0.2 	"/>
	<polygon class="st1" points="28.1,9.4 24.8,0.2 18.7,0.2 18.7,14.8 22.5,14.8 22.5,4.3 26.3,14.8 29.8,14.8 33.7,4.3 33.7,14.8
		37.5,14.8 37.5,0.2 31.4,0.2 	"/>
	<path class="st1" d="M6.9,8.6l2-4.9l2,4.9H6.9z M6.4,0.2L0,14.8h4.3l1.2-3h6.8l1.3,3h4.4L11.5,0.2H6.4z"/>
</g>
</svg>
