<svg xmlns="http://www.w3.org/2000/svg" width="16" height="16" viewBox="0 0 16 16">
  <g fill="none" fill-rule="evenodd">
    <rect width="16" height="16"/>
    <path fill="#006FCF" d="M7.9966402,0 C12.4130802,0 15.9932804,3.5817035 15.9932804,7.9999993 C15.9932804,12.4182951 12.4130802,16.0000603 7.9966402,16.0000603 C3.5802002,16.0000603 0,12.4182976 0,8.000001 C0,3.5817044 3.5802002,0 7.9966402,0 Z M7.9966402,14.9996502 C11.8546104,14.9996502 14.9932804,11.8596012 14.9932804,8.0000105 C14.9932804,4.1404198 11.8546104,1.0004311 7.9966402,1.0004311 C4.13867,1.0004311 1,4.1404202 1,8.0000107 C1,11.8596012 4.13867,14.9996502 7.9966402,14.9996502 Z M7.9948101,5.9985592 C8.5447998,5.9985592 8.9948101,6.4487584 8.9948101,6.9989793 L8.9948101,12.0010798 C8.9948101,12.5513013 8.5447998,13.0015004 7.9948101,13.0015004 C7.4448204,13.0015004 6.9948101,12.5513012 6.9948101,12.0010798 L6.9948101,6.9989793 C6.9948101,6.4487583 7.4448204,5.9985592 7.9948101,5.9985592 Z M7.9948091,5.1255023 C7.3732278,5.1255023 6.8693366,4.6216111 6.8693366,4.0000298 C6.8693366,3.3784485 7.3732278,2.8745573 7.9948091,2.8745573 C8.6163904,2.8745573 9.1202816,3.3784485 9.1202816,4.0000298 C9.1202816,4.6216111 8.6163904,5.1255023 7.9948091,5.1255023 Z"/>
  </g>
</svg>
