<?xml version="1.0" encoding="utf-8"?>
<!-- Generator: Adobe Illustrator 18.0.0, SVG Export Plug-In . SVG Version: 6.00 Build 0)  -->
<!DOCTYPE svg PUBLIC "-//W3C//DTD SVG 1.1//EN" "http://www.w3.org/Graphics/SVG/1.1/DTD/svg11.dtd">
<svg version="1.1" id="Layer_1" xmlns="http://www.w3.org/2000/svg" xmlns:xlink="http://www.w3.org/1999/xlink" x="0px" y="0px"
	 width="100px" height="69px" viewBox="0 0 100 69" enable-background="new 0 0 100 69" xml:space="preserve">
<rect y="0.00034" fill="#FFFFFF" width="100" height="69"/>
<g>
	<path fill="#BD3D44" d="M0,0h100v5.30774H0V0z M0,10.61549h100v5.30774H0V10.61549z M0,21.23098h100v5.30774H0V21.23098z
		 M0,31.84646h100v5.30774H0V31.84646z M0,42.46195h100v5.30774H0V42.46195z M0,53.07744h100v5.30774H0V53.07744z M0,63.69293h100
		v5.30774H0V63.69293z"/>
</g>
<path fill="#192F5D" d="M0,0h52.44v37.15353H0V0z"/>
<g>
	<path fill="#FFFFFF" d="M4.37004,1.59023l0.47707,1.46841h1.54414L5.14198,3.96629l0.47721,1.46841L4.36991,4.52718L3.1209,5.43469
		l0.47707-1.46841L2.34883,3.05864h1.54401L4.37004,1.59023z M13.11,1.59023l0.47721,1.46841h1.54414l-1.24928,0.90765
		l0.47721,1.46841L13.11,4.52718l-1.24901,0.90751l0.47707-1.46841l-1.24914-0.90765h1.54401L13.11,1.59023z M21.85036,1.59023
		l0.47707,1.46841h1.54415L22.6223,3.96629l0.47721,1.46841l-1.24914-0.90751l-1.24914,0.90751l0.47707-1.46841l-1.24914-0.90765
		h1.54415L21.85036,1.59023z M30.59018,1.59023l0.47707,1.46841h1.54401l-1.24914,0.90765l0.47707,1.46841l-1.24901-0.90751
		L29.3409,5.43469l0.47721-1.46841l-1.24928-0.90765h1.54415L30.59018,1.59023z M39.3304,1.59023l0.47707,1.46841h1.54415
		l-1.24928,0.90765l0.4772,1.46841l-1.24928-0.90751l-1.24901,0.90751l0.47707-1.46841l-1.24915-0.90765h1.54401L39.3304,1.59023z
		 M48.07063,1.59023l0.47707,1.46841h1.54415l-1.24928,0.90765l0.4772,1.46841l-1.24914-0.90751l-1.24928,0.90751l0.47734-1.46841
		l-1.24928-0.90765h1.54414L48.07063,1.59023z"/>
	<g>
		<path fill="#FFFFFF" d="M8.74022,5.30572L9.2173,6.77413h1.54414L9.51216,7.68164L9.9895,9.15018L8.74022,8.24267L7.49108,9.15018
			l0.47707-1.46854L6.71901,6.77413h1.54414L8.74022,5.30572z M17.48005,5.30572l0.47707,1.46841h1.54401l-1.24914,0.90751
			l0.47707,1.46854l-1.24901-0.90751l-1.24928,0.90751l0.47721-1.46854l-1.24928-0.90751h1.54414L17.48005,5.30572z
			 M26.22027,5.30572l0.47707,1.46841h1.54415L26.9922,7.68164l0.47721,1.46854l-1.24928-0.90751l-1.24901,0.90751l0.47707-1.46854
			l-1.24914-0.90751h1.54401L26.22027,5.30572z M34.96049,5.30572l0.47707,1.46841h1.54414l-1.24928,0.90751l0.4772,1.46854
			l-1.24915-0.90751l-1.24928,0.90751l0.47748-1.46854l-1.24928-0.90751h1.54414L34.96049,5.30572z M43.70031,5.30572
			l0.47707,1.46841h1.54401l-1.24915,0.90751l0.47707,1.46854l-1.24901-0.90751l-1.24928,0.90751l0.4772-1.46854l-1.24928-0.90751
			h1.54415L43.70031,5.30572z"/>
	</g>
	<g>
		<path fill="#FFFFFF" d="M4.37004,9.02108l0.47707,1.46841h1.54414l-1.24928,0.90765l0.47721,1.46841l-1.24928-0.90751
			L3.1209,12.86554l0.47707-1.46841l-1.24914-0.90765h1.54401L4.37004,9.02108z M13.11,9.02108l0.47721,1.46841h1.54414
			l-1.24928,0.90765l0.47721,1.46841L13.11,11.95802l-1.24901,0.90751l0.47707-1.46841l-1.24914-0.90765h1.54401L13.11,9.02108z
			 M21.85036,9.02108l0.47707,1.46841h1.54415l-1.24928,0.90765l0.47721,1.46841l-1.24914-0.90751l-1.24914,0.90751l0.47707-1.46841
			l-1.24914-0.90765h1.54415L21.85036,9.02108z M30.59018,9.02108l0.47707,1.46841h1.54401l-1.24914,0.90765l0.47707,1.46841
			l-1.24901-0.90751l-1.24928,0.90751l0.47721-1.46841l-1.24928-0.90765h1.54415L30.59018,9.02108z M39.3304,9.02108
			l0.47707,1.46841h1.54415l-1.24928,0.90765l0.4772,1.46841l-1.24928-0.90751l-1.24901,0.90751l0.47707-1.46841l-1.24915-0.90765
			h1.54401L39.3304,9.02108z M48.07063,9.02108l0.47707,1.46841h1.54415l-1.24928,0.90765l0.4772,1.46841l-1.24914-0.90751
			l-1.24928,0.90751l0.47734-1.46841l-1.24928-0.90765h1.54414L48.07063,9.02108z"/>
		<g>
			<path fill="#FFFFFF" d="M8.74022,12.73643l0.47707,1.46854h1.54414l-1.24928,0.90751l0.47734,1.46854l-1.24928-0.90751
				l-1.24914,0.90751l0.47707-1.46854l-1.24914-0.90751h1.54415L8.74022,12.73643z M17.48005,12.73643l0.47707,1.46854h1.54401
				l-1.24914,0.90751l0.47707,1.46854l-1.24901-0.90751l-1.24928,0.90751l0.47721-1.46854l-1.24928-0.90751h1.54414
				L17.48005,12.73643z M26.22027,12.73643l0.47707,1.46854h1.54415l-1.24928,0.90751l0.47721,1.46854l-1.24928-0.90751
				l-1.24901,0.90751l0.47707-1.46854l-1.24914-0.90751h1.54401L26.22027,12.73643z M34.96049,12.73643l0.47707,1.46854h1.54414
				l-1.24928,0.90751l0.4772,1.46854l-1.24915-0.90751l-1.24928,0.90751l0.47734-1.46854l-1.24928-0.90751h1.54414
				L34.96049,12.73643z M43.70031,12.73643l0.47707,1.46854h1.54401l-1.24915,0.90751l0.47707,1.46854l-1.24901-0.90751
				l-1.24928,0.90751l0.4772-1.46854l-1.24928-0.90751h1.54415L43.70031,12.73643z"/>
		</g>
	</g>
	<g>
		<path fill="#FFFFFF" d="M4.37004,16.45192l0.47707,1.46841h1.54414l-1.24928,0.90765l0.47721,1.4684l-1.24928-0.90751
			L3.1209,20.29638l0.47707-1.4684l-1.24914-0.90765h1.54401L4.37004,16.45192z M13.11,16.45192l0.47721,1.46841h1.54414
			l-1.24928,0.90765l0.47721,1.4684L13.11,19.38886l-1.24901,0.90751l0.47707-1.4684l-1.24914-0.90765h1.54401L13.11,16.45192z
			 M21.85036,16.45192l0.47707,1.46841h1.54415l-1.24928,0.90765l0.47721,1.4684l-1.24914-0.90751l-1.24914,0.90751l0.47707-1.4684
			l-1.24914-0.90765h1.54415L21.85036,16.45192z M30.59018,16.45192l0.47707,1.46841h1.54401l-1.24914,0.90765l0.47707,1.4684
			l-1.24901-0.90751l-1.24928,0.90751l0.47721-1.4684l-1.24928-0.90765h1.54415L30.59018,16.45192z M39.3304,16.45192
			l0.47707,1.46841h1.54415l-1.24928,0.90765l0.4772,1.4684l-1.24928-0.90751l-1.24901,0.90751l0.47707-1.4684l-1.24915-0.90765
			h1.54401L39.3304,16.45192z M48.07063,16.45192l0.47707,1.46841h1.54415l-1.24928,0.90765l0.4772,1.4684l-1.24914-0.90751
			l-1.24928,0.90751l0.47734-1.4684l-1.24928-0.90765h1.54414L48.07063,16.45192z"/>
		<g>
			<path fill="#FFFFFF" d="M8.74022,20.16727l0.47707,1.46854h1.54414l-1.24928,0.90751l0.47734,1.46854l-1.24928-0.90751
				l-1.24914,0.90751l0.47707-1.46854l-1.24914-0.90751h1.54415L8.74022,20.16727z M17.48005,20.16727l0.47707,1.46854h1.54401
				l-1.24914,0.90751l0.47707,1.46854l-1.24901-0.90751l-1.24928,0.90751l0.47721-1.46854l-1.24928-0.90751h1.54414
				L17.48005,20.16727z M26.22027,20.16727l0.47707,1.46854h1.54415l-1.24928,0.90751l0.47721,1.46854l-1.24928-0.90751
				l-1.24901,0.90751l0.47707-1.46854l-1.24914-0.90751h1.54401L26.22027,20.16727z M34.96049,20.16727l0.47707,1.46854h1.54414
				l-1.24928,0.90751l0.4772,1.46854l-1.24915-0.90751l-1.24928,0.90751l0.47734-1.46854l-1.24928-0.90751h1.54414
				L34.96049,20.16727z M43.70031,20.16727l0.47707,1.46854h1.54401l-1.24915,0.90751l0.47707,1.46854l-1.24901-0.90751
				l-1.24928,0.90751l0.4772-1.46854l-1.24928-0.90751h1.54415L43.70031,20.16727z"/>
		</g>
	</g>
	<g>
		<path fill="#FFFFFF" d="M4.37004,23.88276l0.47707,1.4684h1.54414l-1.24928,0.90765l0.47721,1.46841l-1.24928-0.90751
			L3.1209,27.72722l0.47707-1.46841l-1.24914-0.90765h1.54401L4.37004,23.88276z M13.11,23.88276l0.47721,1.4684h1.54414
			l-1.24928,0.90765l0.47721,1.46841L13.11,26.81971l-1.24901,0.90751l0.47707-1.46841l-1.24914-0.90765h1.54401L13.11,23.88276z
			 M21.85036,23.88276l0.47707,1.4684h1.54415l-1.24928,0.90765l0.47721,1.46841l-1.24914-0.90751l-1.24914,0.90751l0.47707-1.46841
			l-1.24914-0.90765h1.54415L21.85036,23.88276z M30.59018,23.88276l0.47707,1.4684h1.54401l-1.24914,0.90765l0.47707,1.46841
			l-1.24901-0.90751l-1.24928,0.90751l0.47721-1.46841l-1.24928-0.90765h1.54415L30.59018,23.88276z M39.3304,23.88276
			l0.47707,1.4684h1.54415l-1.24928,0.90765l0.4772,1.46841l-1.24928-0.90751l-1.24901,0.90751l0.47707-1.46841l-1.24915-0.90765
			h1.54401L39.3304,23.88276z M48.07063,23.88276l0.47707,1.4684h1.54415l-1.24928,0.90765l0.4772,1.46841l-1.24914-0.90751
			l-1.24928,0.90751l0.47734-1.46841l-1.24928-0.90765h1.54414L48.07063,23.88276z"/>
		<g>
			<path fill="#FFFFFF" d="M8.74022,27.59811l0.47707,1.46854h1.54414l-1.24928,0.90751l0.47734,1.46854l-1.24928-0.90751
				l-1.24914,0.90751l0.47707-1.46854l-1.24914-0.90751h1.54415L8.74022,27.59811z M17.48005,27.59811l0.47707,1.46854h1.54401
				l-1.24914,0.90751l0.47707,1.46854l-1.24901-0.90751l-1.24928,0.90751l0.47721-1.46854l-1.24928-0.90751h1.54414
				L17.48005,27.59811z M26.22027,27.59811l0.47707,1.46854h1.54415l-1.24928,0.90751l0.47721,1.46854l-1.24928-0.90751
				l-1.24901,0.90751l0.47707-1.46854l-1.24914-0.90751h1.54401L26.22027,27.59811z M34.96049,27.59811l0.47707,1.46854h1.54414
				l-1.24928,0.90751l0.4772,1.46854l-1.24915-0.90751l-1.24928,0.90751l0.47734-1.46854l-1.24928-0.90751h1.54414
				L34.96049,27.59811z M43.70031,27.59811l0.47707,1.46854h1.54401l-1.24915,0.90751l0.47707,1.46854l-1.24901-0.90751
				l-1.24928,0.90751l0.4772-1.46854l-1.24928-0.90751h1.54415L43.70031,27.59811z"/>
		</g>
	</g>
	<g>
		<path fill="#FFFFFF" d="M4.37004,31.3136l0.47707,1.4684h1.54414l-1.24928,0.90765l0.47721,1.4684l-1.24928-0.90751
			L3.1209,35.15806l0.47707-1.4684l-1.24914-0.90765h1.54401L4.37004,31.3136z M13.11,31.3136l0.47721,1.4684h1.54414
			l-1.24928,0.90765l0.47721,1.4684L13.11,34.25055l-1.24901,0.90751l0.47707-1.4684l-1.24914-0.90765h1.54401L13.11,31.3136z
			 M21.85036,31.3136l0.47707,1.4684h1.54415l-1.24928,0.90765l0.47721,1.4684l-1.24914-0.90751l-1.24914,0.90751l0.47707-1.4684
			l-1.24914-0.90765h1.54415L21.85036,31.3136z M30.59018,31.3136l0.47707,1.4684h1.54401l-1.24914,0.90765l0.47707,1.4684
			l-1.24901-0.90751l-1.24928,0.90751l0.47721-1.4684l-1.24928-0.90765h1.54415L30.59018,31.3136z M39.3304,31.3136l0.47707,1.4684
			h1.54415l-1.24928,0.90765l0.4772,1.4684l-1.24928-0.90751l-1.24901,0.90751l0.47707-1.4684l-1.24915-0.90765h1.54401
			L39.3304,31.3136z M48.07063,31.3136l0.47707,1.4684h1.54415l-1.24928,0.90765l0.4772,1.4684l-1.24914-0.90751l-1.24928,0.90751
			l0.47734-1.4684l-1.24928-0.90765h1.54414L48.07063,31.3136z"/>
	</g>
</g>
</svg>
