<?xml version="1.0" encoding="utf-8"?>
<!-- Generator: Adobe Illustrator 21.0.2, SVG Export Plug-In . SVG Version: 6.00 Build 0)  -->
<svg version="1.1" id="Layer_1" xmlns="http://www.w3.org/2000/svg" xmlns:xlink="http://www.w3.org/1999/xlink" x="0px" y="0px"
	 width="100px" height="28px" viewBox="0 0 100 28" style="enable-background:new 0 0 100 28;" xml:space="preserve">
<style type="text/css">
	.st0{fill:none;}
	.st1{fill:#006FCF;}
</style>
<rect class="st0" width="100" height="28"/>
<g>
	<path class="st1" d="M96.1,20.3h-2.9c-0.6,0-1.1-0.4-1.1-0.9c0-0.6,0.5-0.9,1.1-0.9h5.3l1.2-2.7h-6.5c-2.7,0-4.2,1.6-4.2,3.7
		c0,2.2,1.5,3.5,3.8,3.5h2.9c0.6,0,1.1,0.4,1.1,0.9s-0.4,0.9-1.1,0.9h-6.4v2.7h6.4c2.7,0,4.2-1.6,4.2-3.8S98.5,20.3,96.1,20.3
		 M84.4,20.3h-2.9c-0.6,0-1.1-0.4-1.1-0.9c0-0.6,0.5-0.9,1.1-0.9h5.3l1.2-2.7h-6.5c-2.7,0-4.2,1.6-4.2,3.7c0,2.2,1.5,3.5,3.8,3.5H84
		c0.6,0,1.1,0.4,1.1,0.9s-0.4,0.9-1.1,0.9h-6.4v2.7H84c2.7,0,4.2-1.6,4.2-3.8C88.3,21.5,86.9,20.3,84.4,20.3"/>
	<polygon class="st1" points="65.9,27.6 75.9,27.6 75.9,24.9 69.1,24.9 69.1,23 75.8,23 75.8,20.3 69.1,20.3 69.1,18.4 75.9,18.4
		75.9,15.7 65.9,15.7 	"/>
	<path class="st1" d="M59.7,20.8h-3.3v-2.4h3.3c0.9,0,1.4,0.6,1.4,1.2C61.1,20.3,60.6,20.8,59.7,20.8 M64.3,19.5
		c0-2.3-1.6-3.8-4.2-3.8h-6.9v11.9h3.2v-4.1h1.2l3.6,4.1H65l-3.9-4.3C63.1,22.8,64.3,21.4,64.3,19.5 M47.2,21h-3.4v-2.6h3.4
		c0.9,0,1.4,0.6,1.4,1.3C48.6,20.4,48.2,21,47.2,21 M47.6,15.7h-6.9v11.9h3.2v-3.9h3.7c2.7,0,4.3-1.7,4.3-4
		C51.8,17.3,50.2,15.7,47.6,15.7"/>
	<polygon class="st1" points="40.1,15.7 36,15.7 33,19.3 29.9,15.7 25.7,15.7 31,21.6 25.6,27.6 29.7,27.6 32.9,23.8 36.1,27.6
		40.3,27.6 34.9,21.5 	"/>
	<polygon class="st1" points="15.2,27.6 25.2,27.6 25.2,24.9 18.3,24.9 18.3,23 25,23 25,20.3 18.3,20.3 18.3,18.4 25.2,18.4
		25.2,15.7 15.2,15.7 	"/>
	<polygon class="st1" points="94.9,7.7 90,0.5 86,0.5 86,12.3 89.2,12.3 89.2,4.8 94.2,12.3 98,12.3 98,0.5 94.9,0.5 	"/>
	<path class="st1" d="M76.5,7.3l1.7-4l1.7,4H76.5z M76.1,0.5l-5.2,11.9h3.5l1-2.4h5.5l1,2.4h3.6L80.2,0.5H76.1z M65.7,6.5V6.3
		c0-1.8,1-3,3-3h3.5V0.4h-3.8c-3.9,0-5.9,2.5-5.9,5.8v0.2c0,3.7,2.3,5.8,5.8,5.8h1.1l1.3-2.7h-1.9C66.9,9.6,65.7,8.5,65.7,6.5"/>
	<polygon class="st1" points="57.7,0.5 57.7,6.4 57.7,12.3 59.3,12.3 60.9,12.3 60.9,6.4 60.9,0.5 	"/>
	<path class="st1" d="M51.5,5.5h-3.3V3.1h3.3c0.9,0,1.4,0.6,1.4,1.2C52.9,5,52.4,5.5,51.5,5.5 M56.1,4.3c0-2.3-1.6-3.8-4.2-3.8H45
		v11.9h3.2V8.2h1.2l3.6,4.1h3.9l-4-4.3C54.9,7.6,56.1,6.1,56.1,4.3"/>
	<polygon class="st1" points="32.9,12.3 42.9,12.3 42.9,9.6 36.1,9.6 36.1,7.7 42.7,7.7 42.7,5 36.1,5 36.1,3.1 42.9,3.1 42.9,0.5
		32.9,0.5 	"/>
	<polygon class="st1" points="22.8,7.9 20.1,0.5 15.2,0.5 15.2,12.3 18.3,12.3 18.3,3.8 21.4,12.3 24.2,12.3 27.3,3.8 27.3,12.3
		30.5,12.3 30.5,0.5 25.5,0.5 	"/>
	<path class="st1" d="M5.6,7.3l1.7-4l1.7,4H5.6z M5.2,0.5L0,12.3h3.5l1-2.4H10l1,2.4h3.6L9.3,0.5H5.2z"/>
</g>
</svg>
