<svg xmlns="http://www.w3.org/2000/svg" xmlns:xlink="http://www.w3.org/1999/xlink" width="55" height="54" viewBox="0 0 55 54">
  <defs>
    <polygon id="bluebox-55x54-a" points="0 .058 0 22.155 53.965 22.155 53.965 .058"/>
    <polygon id="bluebox-55x54-c" points="43.702 6.398 43.702 .04 .344 .04 .344 6.398 43.702 6.398"/>
  </defs>
  <g fill="none" fill-rule="evenodd">
    <polygon fill="#006FCF" points=".008 0 .008 53.95 53.957 53.95 53.957 29.404 53.957 0"/>
    <g transform="translate(0 16.675)">
      <mask id="bluebox-55x54-b" fill="#fff">
        <use xlink:href="#bluebox-55x54-a"/>
      </mask>
      <path fill="#FFF" d="M47.3533822,9.48496816 L51.4040123,9.48496816 L51.4040123,0.0575298364 L47.0806917,0.0575298364 L47.0806917,1.56517448 L46.118428,0.0575298364 L42.3493163,0.0575298364 L42.3493163,1.96391069 L41.5047607,0.0575298364 L35.2740783,0.0575298364 C34.9749036,0.0575298364 34.6825951,0.0796001061 34.3996052,0.123740646 C34.158794,0.161505329 33.9243587,0.215454877 33.6982611,0.286079741 C33.520718,0.34150064 33.3480794,0.407220999 33.1818167,0.483240817 C32.9866175,0.572993247 32.7997559,0.676478289 32.6227032,0.794676845 L32.6227032,0.470489105 L32.6227032,0.0575298364 L12.2881376,0.0575298364 L11.7344191,1.7015197 L11.1708915,0.0575298364 L6.43951616,0.0575298364 L6.43951616,1.98401916 L5.58564195,0.0575298364 L1.725797,0.0575298364 L-9.80900876e-05,4.09001334 L-9.80900876e-05,8.64580746 L-9.80900876e-05,9.48496816 L2.73367265,9.48496816 L3.24226976,8.1318154 L4.20502397,8.1318154 L4.72293963,9.48496816 L25.7568876,9.48496816 L25.7568876,8.11366873 L26.8103751,9.48496816 L32.6227032,9.48496816 L32.6227032,9.18334114 L32.6227032,8.79931844 C32.7727811,8.89642763 32.9287443,8.98127556 33.0871598,9.05533357 C33.2460658,9.12890114 33.4084049,9.1916788 33.5727057,9.24464744 C33.7757522,9.31085825 33.9822319,9.3608842 34.1877306,9.39815843 C34.5231987,9.45897428 34.8571954,9.48496816 35.1745169,9.48496816 L38.6527914,9.48496816 L39.1613885,8.1318154 L40.1241427,8.1318154 L40.6415679,9.48496816 L46.4725332,9.48496816 L46.4725332,8.08620351 L47.3533822,9.48496816 Z M53.9646541,21.5745715 L53.9646541,12.7288074 L53.4923503,12.7288074 L20.488469,12.7288074 L19.6345947,13.9367868 L18.7905295,12.7288074 L9.16347789,12.7288074 L9.16347789,22.1552648 L18.7537458,22.1552648 L19.5894733,20.9291387 L20.4521756,22.1552648 L26.455289,22.1552648 L26.455289,20.1213668 L26.3920209,20.1213668 C27.1384865,20.1213668 27.8167794,19.9864929 28.4175812,19.763338 L28.4175812,22.1552648 L32.6040661,22.1552648 L32.6040661,20.7844558 L33.6575537,22.1552648 L51.8213856,22.1552648 C52.3442058,22.1552648 52.8341658,22.0664932 53.2736094,21.9070969 C53.5207964,21.8173444 53.752289,21.7055217 53.9646541,21.5745715 Z" mask="url(#bluebox-55x54-b)"/>
      <g transform="translate(10.3 14.223)">
        <mask id="bluebox-55x54-d" fill="#fff">
          <use xlink:href="#bluebox-55x54-c"/>
        </mask>
        <path fill="#006FCF" d="M41.5585141,5.12623702 L38.2979995,5.12623702 L38.2979995,6.39797501 L41.5124117,6.39797501 C42.884692,6.39797501 43.7017825,5.56224746 43.7017825,4.3724147 C43.7017825,3.23702194 42.9661068,2.57442339 41.7311526,2.57442339 L40.2598013,2.57442339 C39.8958871,2.57442339 39.6423242,2.33802628 39.6423242,1.9657744 C39.6423242,1.58420396 39.8958871,1.33015063 40.2598013,1.33015063 L43.0200564,1.33015063 L43.5840744,0.040265981 L40.3049227,0.040265981 C38.9331329,0.040265981 38.1160424,0.875993527 38.1160424,2.0202144 C38.1160424,3.1919005 38.8885019,3.8638176 40.0964813,3.8638176 L41.5585141,3.8638176 C41.9214474,3.8638176 42.1848193,4.09972426 42.1848193,4.48178515 C42.1848193,4.87169325 41.9214474,5.12623702 41.5585141,5.12623702 Z M35.5097888,5.12623702 L32.2497647,5.12623702 L32.2497647,6.39797501 L35.4641769,6.39797501 C36.8359668,6.39797501 37.6535477,5.56224746 37.6535477,4.3724147 C37.6535477,3.23702194 36.917872,2.57442339 35.6824274,2.57442339 L34.211076,2.57442339 C33.8476523,2.57442339 33.5935989,2.33802628 33.5935989,1.9657744 C33.5935989,1.58420396 33.8476523,1.33015063 34.211076,1.33015063 L36.9718216,1.33015063 L37.5353491,0.040265981 L34.2561975,0.040265981 C32.8848981,0.040265981 32.0673172,0.875993527 32.0673172,2.0202144 C32.0673172,3.1919005 32.8397766,3.8638176 34.047756,3.8638176 L35.5097888,3.8638176 C35.8727221,3.8638176 36.136094,4.09972426 36.136094,4.48178515 C36.136094,4.87169325 35.8727221,5.12623702 35.5097888,5.12623702 Z M31.3233039,1.33015063 L31.3233039,0.040265981 L26.2373328,0.040265981 L26.2373328,6.39797501 L31.3233039,6.39797501 L31.3233039,5.11691847 L27.7631241,5.11691847 L27.7631241,3.83684282 L31.2413986,3.83684282 L31.2413986,2.56510484 L27.7631241,2.56510484 L27.7631241,1.33015063 L31.3233039,1.33015063 Z M22.8041797,1.33897874 C23.3490702,1.33897874 23.6399073,1.69308396 23.6399073,2.12958485 C23.6399073,2.56510484 23.3490702,2.90989149 22.8041797,2.90989149 L21.0150166,2.90989149 L21.0150166,1.33897874 L22.8041797,1.33897874 Z M21.0150166,4.10904282 L21.7325455,4.10904282 L23.6305887,6.39797501 L25.5286319,6.39797501 L23.4128287,4.05460282 C24.4937815,3.85449904 25.1382334,3.07370194 25.1382334,2.05650773 C25.1382334,0.866674969 24.2936777,0.040265981 22.940525,0.040265981 L19.4892252,0.040265981 L19.4892252,6.39797501 L21.0150166,6.39797501 L21.0150166,4.10904282 Z M17.1277064,2.17421584 C17.1277064,2.60188862 16.8555064,2.95550338 16.3194441,2.95550338 L14.4939875,2.95550338 L14.4939875,1.39390919 L16.3194441,1.39390919 C16.8555064,1.39390919 17.1277064,1.73869585 17.1277064,2.17421584 Z M12.9681962,0.040265981 L12.9681962,6.39797501 L14.4939875,6.39797501 L14.4939875,4.29933759 L16.4101774,4.29933759 C17.8001139,4.29933759 18.6623258,3.39151382 18.6623258,2.16538773 C18.6623258,0.903458752 17.8182606,0.040265981 16.4646174,0.040265981 L12.9681962,0.040265981 Z M10.7248759,6.39797501 L12.6322377,6.39797501 L10.0799336,3.1919005 L12.614091,0.040265981 L10.7616597,0.040265981 L9.1990846,2.05650773 L7.64631851,0.040265981 L5.73895676,0.040265981 L8.28194228,3.21887527 L5.74778486,6.39797501 L7.60070662,6.39797501 L9.16279126,4.35426803 L10.7248759,6.39797501 Z M5.42997298,1.33015063 L5.42997298,0.040265981 L0.344001937,0.040265981 L0.344001937,6.39797501 L5.42997298,6.39797501 L5.42997298,5.11691847 L1.8702837,5.11691847 L1.8702837,3.83684282 L5.34855821,3.83684282 L5.34855821,2.56510484 L1.8702837,2.56510484 L1.8702837,1.33015063 L5.42997298,1.33015063 Z" mask="url(#bluebox-55x54-d)"/>
      </g>
      <path fill="#006FCF" d="M45.2373337,4.14464952 L45.2191871,3.61790575 L45.536999,4.14464952 L47.970614,7.95005447 L49.7514396,7.95005447 L49.7514396,1.59234544 L48.2619416,1.59234544 L48.2619416,5.27072372 L48.2800883,5.74302749 L47.9985697,5.27072372 L45.6184137,1.59234544 L43.7483262,1.59234544 L43.7483262,7.95005447 L45.2373337,7.95005447 L45.2373337,4.14464952 Z M39.1528056,3.96318285 L39.6157908,2.77335009 L40.0782856,3.96318285 L40.6423036,5.37077561 L38.5985966,5.37077561 L39.1528056,3.96318285 Z M41.677154,7.95005447 L43.3932401,7.95005447 L40.6785969,1.59234544 L38.6706928,1.59234544 L35.9467311,7.95005447 L37.5720838,7.95005447 L38.1081462,6.58758315 L41.1322636,6.58758315 L41.677154,7.95005447 Z M35.0202702,7.95005447 L35.1021754,7.95005447 L35.7284806,6.59690171 L35.2654954,6.59690171 C34.220836,6.59690171 33.6033589,5.94313127 33.6033589,4.81705707 L33.6033589,4.72632374 C33.6033589,3.71795764 34.1570774,2.96413531 35.2473488,2.96413531 L36.9001667,2.96413531 L36.9001667,1.59234544 L35.1203221,1.59234544 C33.1585204,1.59234544 32.0868861,2.90969531 32.0868861,4.71700518 L32.0868861,4.82588518 C32.0868861,6.71510026 33.1859856,7.94122636 35.0202702,7.95005447 Z M29.5983406,7.95005447 L31.1241319,7.95005447 L31.1241319,5.15203472 L31.1241319,1.59234544 L29.5983406,1.59234544 L29.5983406,5.11574138 L29.5983406,7.95005447 Z M26.3922661,2.89154865 C26.9371565,2.89154865 27.2279937,3.24565386 27.2279937,3.6816643 C27.2279937,4.11767474 26.9371565,4.4624614 26.3922661,4.4624614 L24.6031029,4.4624614 L24.6031029,2.89154865 L26.3922661,2.89154865 Z M24.6031029,5.66161272 L25.3206319,5.66161272 L27.2191655,7.95005447 L29.1172087,7.95005447 L27.0009151,5.60668227 C28.0818679,5.40706894 28.7268102,4.6257814 28.7268102,3.60907764 C28.7268102,2.41924488 27.8817641,1.59234544 26.5286113,1.59234544 L23.0773116,1.59234544 L23.0773116,7.95005447 L24.6031029,7.95005447 L24.6031029,5.66161272 Z M21.960556,2.88223009 L21.960556,1.59234544 L16.8745849,1.59234544 L16.8745849,7.95005447 L21.960556,7.95005447 L21.960556,6.65134171 L18.4003762,6.65134171 L18.4003762,5.38892228 L21.8786507,5.38892228 L21.8786507,4.11767474 L18.4003762,4.11767474 L18.4003762,2.88223009 L21.960556,2.88223009 Z M9.3093869,3.60907764 L9.27260312,1.89250111 L11.0347915,7.95005447 L12.4154095,7.95005447 L14.1771075,1.92879444 L14.1408142,3.59975908 L14.1408142,7.95005447 L15.6209936,7.95005447 L15.6209936,1.59234544 L12.9328347,1.59234544 L11.7248553,6.09713271 L10.5080478,1.59234544 L7.82871703,1.59234544 L7.82871703,7.95005447 L9.3093869,7.95005447 L9.3093869,3.60907764 Z M3.23319642,3.96318285 L3.69667209,2.77335009 L4.1596573,3.96318285 L4.7226944,5.37077561 L2.67947788,5.37077561 L3.23319642,3.96318285 Z M5.75803528,7.95005447 L7.47461181,7.95005447 L4.75898774,1.59234544 L2.75206454,1.59234544 L0.0271219092,7.95005447 L1.65296511,7.95005447 L2.18902744,6.58758315 L5.21314484,6.58758315 L5.75803528,7.95005447 Z"/>
    </g>
  </g>
</svg>
